# Blender v2.92.0 OBJ File: 'cubeSceneDebug.blend'
# www.blender.org
mtllib cubeSceneDebug.mtl
o Cube.001
v -5.188928 3.741947 4.592819
v 4.571908 0.619827 5.603959
v 5.583047 3.741947 -4.156877
v -5.188928 1.447189 4.592819
v -2.602307 0.619827 4.860771
v -4.431324 0.862156 4.671300
v -1.859119 0.619827 -2.313443
v -4.445740 1.447189 -2.581395
v -1.591167 1.447189 -4.900064
v -3.688137 0.862156 -2.502914
v -3.197803 0.969512 -3.961532
v -3.498666 1.447189 -4.331932
v -1.669648 0.862156 -4.142461
v -1.591167 3.741947 -4.900064
v -4.445740 3.741947 -2.581395
v -3.498666 3.741947 -4.331932
v 5.315095 0.619827 -1.570255
v 5.583047 1.447189 -4.156877
v 5.504566 0.862156 -3.399273
vt 0.441250 0.316250
vt 0.625000 0.316250
vt 0.625000 0.500000
vt 0.441250 0.500000
vt 0.441250 0.000000
vt 0.625000 0.000000
vt 0.625000 0.183750
vt 0.441250 0.183750
vt 0.191250 0.566250
vt 0.125000 0.566250
vt 0.125000 0.528001
vt 0.191250 0.500000
vt 0.441250 0.250000
vt 0.403001 0.250000
vt 0.375000 0.183750
vt 0.375000 0.316250
vt 0.375000 0.278001
vt 0.191250 0.750000
vt 0.125000 0.750000
vt 0.375000 0.000000
vt 0.625000 0.250000
vt 0.375000 0.566250
vt 0.375000 0.500000
vt 0.375000 0.750000
vn -0.0747 -0.4075 -0.9101
vn -0.0930 0.0000 -0.9957
vn 0.1030 0.0000 -0.9947
vn 0.0924 -0.4421 -0.8922
vn -0.8922 -0.4421 -0.0924
vn -0.9947 0.0000 -0.1030
vn -0.9554 0.0000 -0.2951
vn -0.8755 -0.4075 -0.2597
vn -0.0548 -0.9962 -0.0675
vn -0.3935 -0.9094 -0.1346
vn -0.3117 -0.8692 -0.3837
vn -0.0511 -0.9094 -0.4127
vn -0.5807 -0.3895 -0.7149
vn -0.0651 -0.9978 -0.0067
vn -0.3809 -0.9237 -0.0395
vn -0.6305 0.0000 -0.7762
vn 0.0067 -0.9978 -0.0651
vn 0.0395 -0.9237 -0.3809
vn 0.0000 -1.0000 0.0000
usemtl Material.003
s 1
f 9/1/1 14/2/2 3/3/3 18/4/4
f 4/5/5 1/6/6 15/7/7 8/8/8
f 7/9/9 10/10/10 11/11/11 13/12/12
f 8/8/8 12/13/13 11/14/11 10/15/10
f 9/1/1 13/16/12 11/17/11 12/13/13
f 7/9/9 5/18/14 6/19/15 10/10/10
f 10/15/10 6/20/15 4/5/5 8/8/8
f 14/2/2 9/1/1 12/13/13 16/21/16
f 16/21/16 12/13/13 8/8/8 15/7/7
f 17/22/17 7/9/9 13/12/12 19/23/18
f 19/23/18 13/16/12 9/1/1 18/4/4
f 7/9/9 17/22/17 2/24/19 5/18/14
o Plane
v 1.804276 3.801924 2.780229
v 1.426436 3.797319 2.928557
v 1.896897 3.477593 3.006097
v 1.519058 3.472988 3.154425
vt 0.000000 0.000000
vt 0.000000 1.000000
vt 1.000000 1.000000
vt 1.000000 0.000000
vn -0.2856 -0.6013 -0.7463
usemtl Material.001
s off
f 20/25/20 22/26/20 23/27/20 21/28/20
o Plane.001
v 1.779313 3.289585 -0.420067
v 1.678286 3.216871 -0.857386
v 1.342578 3.382949 -0.334699
v 1.241551 3.310235 -0.772018
vt 0.000000 0.000000
vt 0.000000 1.000000
vt 1.000000 1.000000
vt 1.000000 0.000000
vn -0.1675 -0.9655 0.1992
usemtl Material.001
s off
f 24/29/21 26/30/21 27/31/21 25/32/21
o Cube
v -0.812382 0.615311 0.871631
v -0.812382 1.790238 0.871631
v -0.812382 0.615311 -0.303296
v -0.812382 1.790238 -0.303296
v 0.362545 0.615311 0.871631
v 0.362545 1.790238 0.871631
v 0.362545 0.615311 -0.303296
v 0.362545 1.790238 -0.303296
vt 0.375000 0.000000
vt 0.625000 0.000000
vt 0.625000 0.250000
vt 0.375000 0.250000
vt 0.625000 0.500000
vt 0.375000 0.500000
vt 0.625000 0.750000
vt 0.375000 0.750000
vt 0.625000 1.000000
vt 0.375000 1.000000
vt 0.125000 0.500000
vt 0.125000 0.750000
vt 0.875000 0.500000
vt 0.875000 0.750000
vn -1.0000 0.0000 0.0000
vn 0.0000 0.0000 -1.0000
vn 1.0000 0.0000 0.0000
vn 0.0000 0.0000 1.0000
vn 0.0000 -1.0000 0.0000
vn 0.0000 1.0000 0.0000
usemtl None
s off
f 28/33/22 29/34/22 31/35/22 30/36/22
f 30/36/23 31/35/23 35/37/23 34/38/23
f 34/38/24 35/37/24 33/39/24 32/40/24
f 32/40/25 33/39/25 29/41/25 28/42/25
f 30/43/26 34/38/26 32/40/26 28/44/26
f 35/37/27 31/45/27 29/46/27 33/39/27
o Cube.002
v 0.122461 1.992891 0.404211
v -0.168242 2.209004 0.514996
v -0.113084 1.784064 0.193506
v -0.403786 2.000177 0.304291
v 0.181599 2.223483 0.109564
v -0.109104 2.439596 0.220349
v -0.053945 2.014656 -0.101141
v -0.344648 2.230769 0.009644
vt 0.375000 0.000000
vt 0.625000 0.000000
vt 0.625000 0.250000
vt 0.375000 0.250000
vt 0.625000 0.500000
vt 0.375000 0.500000
vt 0.625000 0.750000
vt 0.375000 0.750000
vt 0.625000 1.000000
vt 0.375000 1.000000
vt 0.125000 0.500000
vt 0.125000 0.750000
vt 0.875000 0.500000
vt 0.875000 0.750000
vn -0.1561 -0.6087 0.7779
vn -0.6218 -0.5513 -0.5562
vn 0.1561 0.6087 -0.7778
vn 0.6218 0.5513 0.5562
vn 0.7674 -0.5705 -0.2925
vn -0.7674 0.5705 0.2925
usemtl None
s off
f 36/47/28 37/48/28 39/49/28 38/50/28
f 38/50/29 39/49/29 43/51/29 42/52/29
f 42/52/30 43/51/30 41/53/30 40/54/30
f 40/54/31 41/53/31 37/55/31 36/56/31
f 38/57/32 42/52/32 40/54/32 36/58/32
f 43/51/33 39/59/33 37/60/33 41/53/33
